HIERARCHY
ROOT Hips
{
  OFFSET 0 89.5177 0.535
  CHANNELS 6 Xposition Yposition Zposition Zrotation Xrotation Yrotation
  JOINT Spine
  {
    OFFSET 12.0259 -0.162855 1.69034e-005
    CHANNELS 3 Zrotation Xrotation Yrotation
    JOINT Spine1
    {
      OFFSET 15.3169 -0.0121922 0
      CHANNELS 3 Zrotation Xrotation Yrotation
      JOINT Spine2
      {
        OFFSET 15.3176 -0.0121908 0
        CHANNELS 3 Zrotation Xrotation Yrotation
        JOINT Neck
        {
          OFFSET 19.9142 1.56338 0
          CHANNELS 3 Zrotation Xrotation Yrotation
          JOINT Head
          {
            OFFSET 6.92651 0 0
            CHANNELS 3 Zrotation Xrotation Yrotation
            End Site
            {
              OFFSET 20.7666 0 0
            }
          }
          JOINT LeftShoulder
          {
            OFFSET -6.20654 0.708824 7.28219
            CHANNELS 3 Zrotation Xrotation Yrotation
            JOINT LeftArm
            {
              OFFSET 14.108 0 -1.52588e-005
              CHANNELS 3 Zrotation Xrotation Yrotation
              JOINT LeftForeArm
              {
                OFFSET 28.5802 0 0
                CHANNELS 3 Zrotation Xrotation Yrotation
                JOINT LeftHand
                {
                  OFFSET 27.092 0 0
                  CHANNELS 3 Zrotation Xrotation Yrotation
                  End Site
                  {
                    OFFSET 9.55928 -0.186424 0.145352
                  }
                }
              }
            }
          }
          JOINT RightShoulder
          {
            OFFSET -6.20654 0.708866 -7.28218
            CHANNELS 3 Zrotation Xrotation Yrotation
            JOINT RightArm
            {
              OFFSET 14.108 0 1.52588e-005
              CHANNELS 3 Zrotation Xrotation Yrotation
              JOINT RightForeArm
              {
                OFFSET 28.5802 0 0
                CHANNELS 3 Zrotation Xrotation Yrotation
                JOINT RightHand
                {
                  OFFSET 27.092 0 0
                  CHANNELS 3 Zrotation Xrotation Yrotation
                  End Site
                  {
                    OFFSET 9.55929 -0.186417 -0.145354
                  }
                }
              }
            }
          }
        }
      }
    }
  }
  JOINT LeftUpLeg
  {
    OFFSET 0.005 -0.535 8.837
    CHANNELS 3 Zrotation Xrotation Yrotation
    JOINT LeftLeg
    {
      OFFSET 39.9035 0 0
      CHANNELS 3 Zrotation Xrotation Yrotation
      JOINT LeftFoot
      {
        OFFSET 39.6689 0 0
        CHANNELS 3 Zrotation Xrotation Yrotation
        JOINT LeftToe
        {
          OFFSET 10.1624 13.6296 0
          CHANNELS 3 Zrotation Xrotation Yrotation
          End Site
          {
            OFFSET 8.38147 0 0
          }
        }
      }
    }
  }
  JOINT RightUpLeg
  {
    OFFSET 0.005 -0.535 -8.837
    CHANNELS 3 Zrotation Xrotation Yrotation
    JOINT RightLeg
    {
      OFFSET 39.9035 0 0
      CHANNELS 3 Zrotation Xrotation Yrotation
      JOINT RightFoot
      {
        OFFSET 39.6689 0 0
        CHANNELS 3 Zrotation Xrotation Yrotation
        JOINT RightToe
        {
          OFFSET 10.1624 13.6296 0
          CHANNELS 3 Zrotation Xrotation Yrotation
          End Site
          {
            OFFSET 8.38147 0 0
          }
        }
      }
    }
  }
}
MOTION
Frames:	18
Frame Time:	0.0333333
526.818 85.7072 -170.184 125.246 -79.8632 33.795 -1.22266 -0.186033 -0.660557 -2.4474 -0.357454 -1.32476 -2.4474 -0.357453 -1.32477 -8.30758e-012 -9.0191e-006 -5.27751e-005 13.8764 7.57759 -7.87239 178.515 -13.6385 -96.273 -9.99023 -57.9209 5.90888 -1.3756e-005 0 -2.38542e-015 -45.0201 -23.3429 -29.4599 178.653 8.37153 99.1738 77.0485 66.4319 -80.7347 -1.13442 -3.97569e-016 3.97569e-016 -37.1986 16.9302 23.1859 -19.5377 3.36476 179.974 -35.0949 -1.59028e-015 -0 21.317 4.6966 1.84834 90 -1.76306e-020 -7.95139e-016 -17.8916 -5.33907 -175.9 -33.1846 0 1.19271e-015 21.8896 -4.74779 -4.01674 90 0 -0 
526.803 85.7057 -170.196 125.09 -79.8569 33.6464 -1.22269 -0.187706 -0.651381 -2.44746 -0.360994 -1.30644 -2.44746 -0.360994 -1.30645 -8.30718e-012 -9.0191e-006 -5.27751e-005 13.9213 7.60823 -7.96203 178.528 -13.5706 -96.2501 -9.93555 -57.7329 5.83493 -1.38782e-005 9.54166e-015 1.59028e-015 -44.9947 -23.369 -29.4587 178.657 8.35044 99.1698 77.011 66.4515 -80.6243 -1.06581 -3.97569e-016 -0 -37.1745 16.878 23.1685 -19.5006 3.31821 179.947 -35.0905 0 -7.95139e-016 21.3294 4.65668 1.85611 90 -3.27966e-020 -0 -17.868 -5.35846 -175.922 -33.1941 -7.95139e-016 3.97569e-016 21.8967 -4.7503 -4.00634 90 0 1.59028e-015 
526.786 85.7054 -170.206 125.154 -79.8637 33.7037 -1.22735 -0.186272 -0.641294 -2.45683 -0.364858 -1.28633 -2.45683 -0.364858 -1.28633 -8.30708e-012 -9.0191e-006 -5.27751e-005 13.9677 7.67784 -8.05148 178.524 -13.5803 -96.2626 -9.87033 -57.613 5.82602 -1.39977e-005 3.18055e-015 -0 -45.0873 -23.5042 -29.6757 178.65 8.34453 99.2198 77.3759 66.4459 -80.9731 -1.01517 -3.97569e-016 3.97569e-016 -37.3195 16.8425 23.1604 -19.4985 3.28789 179.936 -35.0912 -1.59028e-015 -7.95139e-016 21.3371 4.62741 1.86543 90 -2.88155e-020 1.59028e-015 -17.8588 -5.32907 -175.918 -33.1741 -7.95139e-016 1.98785e-016 21.8605 -4.73024 -3.99932 90 0 3.18055e-015 
526.769 85.7051 -170.212 125.357 -79.8805 33.8866 -1.23764 -0.184838 -0.627402 -2.47725 -0.355606 -1.25847 -2.47725 -0.355606 -1.25848 -8.30728e-012 -9.0191e-006 -5.27751e-005 14.0453 7.72679 -8.09539 178.519 -13.6084 -96.2686 -9.94537 -57.7897 5.72791 -1.41145e-005 6.36111e-015 -7.95139e-016 -45.0575 -23.4062 -29.5593 178.641 8.36669 99.2593 77.3885 66.4197 -81.0114 -1.06797 -3.97569e-016 7.95139e-016 -37.3677 16.8648 23.1446 -19.51 3.24963 179.938 -35.1 0 -2.38542e-015 21.3546 4.58789 1.87469 90 2.62563e-020 7.95139e-016 -17.8658 -5.2508 -175.892 -33.143 0 -0 21.8022 -4.68859 -3.99138 90 -7.45443e-017 -1.59028e-015 
526.74 85.7049 -170.226 125.388 -79.8836 33.927 -1.24601 -0.187129 -0.621719 -2.49399 -0.360219 -1.24718 -2.49399 -0.360219 -1.24719 -8.30728e-012 -9.0191e-006 -5.27751e-005 14.1761 7.77284 -8.12797 178.511 -13.6096 -96.3057 -9.91175 -57.7395 5.70651 -1.42284e-005 -1.27222e-014 7.95139e-016 -45.1324 -23.4354 -29.6082 178.631 8.39152 99.2986 77.7004 66.4553 -81.3596 -1.06235 -3.97569e-016 -0 -37.321 16.7729 23.1462 -19.4903 3.37201 179.932 -35.0816 0 -1.59028e-015 21.3575 4.65912 1.8984 90 1.33651e-020 -0 -17.8654 -5.27 -175.928 -33.1574 0 -5.96354e-016 21.825 -4.70495 -3.96885 90 0 -3.18055e-015 
526.712 85.7045 -170.236 125.491 -79.8502 34.0366 -1.26083 -0.194433 -0.613613 -2.52368 -0.374842 -1.23118 -2.52368 -0.374842 -1.23119 -8.30708e-012 -9.0191e-006 -5.27751e-005 14.2985 7.83751 -8.13573 178.499 -13.602 -96.3574 -9.80748 -57.8349 5.76471 -1.43393e-005 -9.54166e-015 7.95139e-016 -45.0874 -23.347 -29.4861 178.617 8.44246 99.3382 78.0404 66.4835 -81.7697 -1.10216 0 -3.97569e-016 -37.295 16.7371 23.0851 -19.5138 3.33929 179.897 -35.0702 0 -1.59028e-015 21.3535 4.65344 1.91513 90 -9.28922e-021 -1.59028e-015 -17.8916 -5.25199 -175.954 -33.1489 7.95139e-016 -5.96354e-016 21.7871 -4.67618 -3.95311 90 -2.48481e-017 -4.77083e-015 
526.685 85.7043 -170.248 125.381 -79.7993 33.9323 -1.27481 -0.20842 -0.608025 -2.55177 -0.402786 -1.22036 -2.55177 -0.402786 -1.22037 -8.30808e-012 -9.0191e-006 -5.27751e-005 14.4419 7.87852 -8.09162 178.489 -13.5995 -96.3986 -9.78218 -57.9291 5.7708 -1.44473e-005 3.18055e-015 3.97569e-015 -45.0656 -23.3033 -29.4333 178.608 8.48629 99.3473 78.1585 66.4986 -81.9571 -1.14075 -1.19271e-015 -0 -37.2872 16.6579 23.0061 -19.5034 3.31623 179.863 -35.054 0 -0 21.3539 4.63991 1.9316 90 1.94126e-019 -1.59028e-015 -17.8916 -5.24161 -175.984 -33.1403 -3.18056e-015 1.78906e-015 21.7574 -4.65486 -3.93278 90 2.48481e-017 -1.59028e-015 
526.659 85.704 -170.253 125.273 -79.7502 33.8289 -1.28141 -0.219888 -0.594324 -2.56506 -0.425954 -1.19324 -2.56506 -0.425954 -1.19325 -8.30708e-012 -9.0191e-006 -5.27751e-005 14.4972 7.90939 -8.10279 178.485 -13.6125 -96.4101 -9.78137 -57.9558 5.81404 -1.45521e-005 -6.36111e-015 7.95139e-016 -45.0701 -23.3136 -29.4758 178.606 8.48504 99.3654 78.0999 66.5238 -81.9142 -1.1515 0 -3.97569e-016 -37.2776 16.6435 22.9977 -19.516 3.31665 179.83 -35.0473 0 -7.95139e-016 21.3509 4.70424 1.95593 90 -9.70628e-020 7.95139e-016 -17.8892 -5.23301 -176.006 -33.1155 -7.95139e-016 -3.97569e-016 21.6883 -4.59092 -3.92322 90 2.48481e-017 -0 
526.634 85.704 -170.258 125.096 -79.7165 33.6631 -1.27861 -0.222538 -0.594984 -2.55948 -0.431268 -1.19461 -2.55948 -0.431268 -1.19462 -8.30728e-012 -9.0191e-006 -5.27751e-005 14.4865 7.8446 -8.00438 178.476 -13.5524 -96.4772 -9.75514 -57.8947 5.84126 -1.46537e-005 -3.18055e-015 2.38542e-015 -45.0497 -23.3257 -29.3797 178.612 8.49446 99.3134 78.0502 66.5238 -81.8192 -1.17628 3.97569e-016 7.95139e-016 -37.2098 16.6031 22.9638 -19.4904 3.2888 179.797 -35.0301 1.59028e-015 -7.95139e-016 21.3473 4.65896 1.96808 90 9.66837e-021 7.95139e-016 -17.8729 -5.22824 -176.034 -33.1003 7.95139e-016 5.96354e-016 21.633 -4.55056 -3.9114 90 0 4.77083e-015 
526.601 85.704 -170.265 124.951 -79.6995 33.5237 -1.26938 -0.227682 -0.583034 -2.54106 -0.4436 -1.17081 -2.54106 -0.4436 -1.17082 -8.30768e-012 -9.0191e-006 -5.27751e-005 14.3759 7.78468 -7.99246 178.48 -13.5372 -96.4669 -9.72181 -57.8778 5.8721 -1.4752e-005 3.18055e-015 7.95139e-016 -45.0732 -23.3342 -29.5176 178.613 8.49888 99.3069 78.1117 66.5448 -81.8667 -1.12717 3.97569e-016 -7.95139e-016 -37.2648 16.6413 23.016 -19.4782 3.25427 179.755 -35.0321 4.77083e-015 -0 21.3664 4.66831 1.99245 90 -3.88251e-019 -0 -17.856 -5.22283 -176.065 -33.1029 1.59028e-015 -9.93923e-016 21.6271 -4.52993 -3.88812 90 0 -1.59028e-015 
526.575 85.7037 -170.266 124.999 -79.6786 33.585 -1.26561 -0.232963 -0.576955 -2.53352 -0.45265 -1.15874 -2.53352 -0.45265 -1.15875 -8.30728e-012 -9.0191e-006 -5.27751e-005 14.3155 7.72955 -7.94992 178.488 -13.5056 -96.4503 -9.70638 -57.8405 5.85972 -1.48469e-005 3.18055e-015 7.95139e-016 -45.0793 -23.2408 -29.4031 178.62 8.47644 99.2825 78.0456 66.4993 -81.7866 -1.14892 3.97569e-016 7.95139e-016 -37.2626 16.6268 23.0144 -19.4772 3.20618 179.707 -35.0039 4.77083e-015 7.95139e-016 21.3346 4.62369 2.01227 90 1.97159e-020 -0 -17.8883 -5.21699 -176.102 -33.1174 -1.59028e-015 3.97569e-016 21.613 -4.52539 -3.86936 90 2.48481e-017 -0 
526.554 85.7033 -170.266 125.136 -79.6721 33.7199 -1.26839 -0.236435 -0.565318 -2.53908 -0.459823 -1.13556 -2.53908 -0.459822 -1.13557 -8.30708e-012 -9.0191e-006 -5.27751e-005 14.3279 7.71026 -7.98413 178.495 -13.5017 -96.4218 -9.69364 -57.8251 5.89529 -1.49383e-005 3.18055e-015 2.38542e-015 -45.0882 -23.3293 -29.4664 178.628 8.46554 99.2425 77.9501 66.5005 -81.7208 -1.11987 0 -1.19271e-015 -37.2117 16.6587 23.0333 -19.5134 3.26505 179.702 -35.0264 0 -0 21.3894 4.69003 2.02927 90 1.55301e-018 1.59028e-015 -17.9159 -5.14824 -176.103 -33.1043 -7.95139e-016 -1.98785e-016 21.5556 -4.4805 -3.85703 90 4.96962e-017 1.59028e-015 
526.529 85.7031 -170.264 125.298 -79.6846 33.8783 -1.27438 -0.236757 -0.549281 -2.55101 -0.460765 -1.10352 -2.55101 -0.460765 -1.10353 -8.30728e-012 -9.0191e-006 -5.27751e-005 14.4493 7.71226 -8.10138 178.514 -13.4349 -96.371 -9.65731 -57.7491 5.88251 -1.50261e-005 6.36111e-015 -7.95139e-016 -45.0167 -23.296 -29.3636 178.624 8.4766 99.2525 78.014 66.5119 -81.8613 -1.0673 3.97569e-016 -0 -37.1741 16.7147 23.0933 -19.5213 3.31006 179.704 -35.0324 -3.18055e-015 -7.95139e-016 21.4243 4.70744 2.04001 90 0 7.95139e-016 -17.9295 -5.16224 -176.114 -33.1081 -7.95139e-016 -3.97569e-016 21.5689 -4.49482 -3.8439 90 -2.48481e-017 -0 
526.501 85.7026 -170.263 125.509 -79.6766 34.0828 -1.28565 -0.248205 -0.533447 -2.57359 -0.483904 -1.07216 -2.57359 -0.483904 -1.07217 -8.30768e-012 -9.0191e-006 -5.27751e-005 14.5944 7.77628 -8.18598 178.517 -13.4568 -96.3481 -9.72317 -57.6478 5.86572 -1.51103e-005 -3.18055e-015 7.95139e-016 -44.996 -23.3698 -29.4465 178.629 8.43244 99.2704 77.5667 66.5336 -81.5071 -1.07251 -3.97569e-016 3.97569e-016 -36.9942 16.66 23.063 -19.5527 3.35449 179.689 -35.0417 -1.59028e-015 -0 21.4662 4.73694 2.06606 90 -3.10601e-018 7.95139e-016 -17.9602 -5.13303 -176.13 -33.0996 -7.95139e-016 -3.97569e-016 21.5364 -4.49011 -3.82054 90 4.96962e-017 1.59028e-015 
526.476 85.7022 -170.262 125.513 -79.616 34.0822 -1.29195 -0.265956 -0.530197 -2.58635 -0.519414 -1.06609 -2.58635 -0.519414 -1.0661 -8.30728e-012 -9.0191e-006 -5.27751e-005 14.6614 7.76472 -8.16493 178.497 -13.4431 -96.4369 -9.67899 -57.5206 5.9578 -1.51907e-005 6.36111e-015 1.59028e-015 -45.0747 -23.5176 -29.6181 178.623 8.47141 99.268 77.0931 66.5883 -81.1946 -1.0571 3.97569e-016 -3.97569e-016 -37.0881 16.6498 23.0789 -19.5938 3.32549 179.663 -35.0543 3.18055e-015 7.95139e-016 21.4993 4.74905 2.08261 90 0 -7.95139e-016 -17.9916 -5.12617 -176.151 -33.0861 1.59028e-015 -7.95139e-016 21.4876 -4.45227 -3.80274 90 -2.48481e-017 1.59028e-015 
526.441 85.7022 -170.277 125.499 -79.6335 34.0891 -1.29192 -0.275098 -0.518681 -2.58369 -0.537969 -1.04326 -2.58369 -0.537968 -1.04327 -8.30708e-012 -9.0191e-006 -5.27751e-005 14.691 7.76819 -8.20923 178.498 -13.4082 -96.4532 -9.58023 -57.5249 6.03043 -1.52673e-005 6.36111e-015 1.59028e-015 -45.0421 -23.5247 -29.5566 178.602 8.50876 99.3633 77.2451 66.6439 -81.4757 -1.15326 3.97569e-016 1.59028e-015 -37.1158 16.5837 22.9906 -19.5425 3.34642 179.622 -35.0202 0 -7.95139e-016 21.4928 4.73269 2.10589 90 6.21202e-018 1.59028e-015 -17.9742 -5.09321 -176.186 -33.0866 7.95139e-016 -0 21.4735 -4.43324 -3.78355 90 2.48481e-017 3.18055e-015 
526.418 85.7022 -170.286 125.404 -79.6243 34.0116 -1.29183 -0.287289 -0.513359 -2.58307 -0.562466 -1.03289 -2.58307 -0.562466 -1.0329 -8.30768e-012 -9.0191e-006 -5.27751e-005 14.7122 7.75819 -8.18192 178.48 -13.436 -96.5132 -9.6317 -57.5383 6.05674 -1.53399e-005 3.18055e-015 -7.95139e-016 -45.0672 -23.4603 -29.5938 178.577 8.55148 99.4824 77.7926 66.7088 -82.0689 -1.17452 -7.95139e-016 7.95139e-016 -37.0501 16.5576 22.9303 -19.518 3.32715 179.582 -34.9973 1.59028e-015 -7.95139e-016 21.4735 4.71345 2.12315 90 0 -0 -17.9622 -5.08664 -176.219 -33.0878 7.95139e-016 -9.93923e-016 21.4492 -4.41587 -3.76915 90 -3.72721e-017 -3.18055e-015 
526.399 85.7022 -170.298 125.4 -79.6309 34.0173 -1.29157 -0.289736 -0.509966 -2.58233 -0.567434 -1.02616 -2.58233 -0.567434 -1.02617 -8.30728e-012 -9.0191e-006 -5.27751e-005 14.7007 7.70023 -8.10133 178.451 -13.4578 -96.6255 -9.60721 -57.7724 6.17524 -1.54085e-005 6.36111e-015 -0 -45.1353 -23.3204 -29.4331 178.557 8.58783 99.5736 78.3355 66.8019 -82.5845 -1.16573 7.95139e-016 3.97569e-016 -37.0809 16.4423 22.8651 -19.4969 3.32032 179.558 -34.9887 0 7.95139e-016 21.4892 4.71839 2.13429 90 0 7.95139e-016 -17.9541 -5.07601 -176.24 -33.0895 7.95139e-016 9.93923e-016 21.4433 -4.40665 -3.75672 90 -1.2424e-017 3.18055e-015 
